<mxfile host="app.diagrams.net" modified="2021-04-20T08:53:00.678Z" agent="5.0 (Macintosh; Intel Mac OS X 11_2_3) AppleWebKit/537.36 (KHTML, like Gecko) Chrome/89.0.4389.128 Safari/537.36" etag="-mHF1xCCNjFMSQp_viR7" version="14.6.2" type="github">
  <diagram id="46cOo1Xf6HaSuN0dVzsb" name="Page-1">
    <mxGraphModel dx="818" dy="532" grid="1" gridSize="10" guides="1" tooltips="1" connect="1" arrows="1" fold="1" page="1" pageScale="1" pageWidth="827" pageHeight="1169" math="0" shadow="0">
      <root>
        <mxCell id="0" />
        <mxCell id="1" parent="0" />
        <mxCell id="ROrTbhS0PifhnmwqXeaA-1" value="&lt;span&gt;Service A&lt;/span&gt;" style="whiteSpace=wrap;html=1;rounded=1;shadow=1;comic=0;labelBackgroundColor=none;strokeWidth=2;fontFamily=Verdana;fontSize=12;align=center;arcSize=50;" parent="1" vertex="1">
          <mxGeometry x="140" y="70" width="100" height="20" as="geometry" />
        </mxCell>
        <mxCell id="ROrTbhS0PifhnmwqXeaA-2" value="MSR 1" style="ellipse;whiteSpace=wrap;html=1;rounded=1;shadow=1;comic=0;labelBackgroundColor=none;strokeWidth=2;fontFamily=Verdana;fontSize=12;align=center;" parent="1" vertex="1">
          <mxGeometry x="260" y="220" width="120" height="80" as="geometry" />
        </mxCell>
        <mxCell id="ROrTbhS0PifhnmwqXeaA-3" value="&lt;span&gt;MSR 2&lt;/span&gt;" style="ellipse;whiteSpace=wrap;html=1;rounded=1;shadow=1;comic=0;labelBackgroundColor=none;strokeWidth=2;fontFamily=Verdana;fontSize=12;align=center;" parent="1" vertex="1">
          <mxGeometry x="660" y="150" width="120" height="80" as="geometry" />
        </mxCell>
        <mxCell id="ROrTbhS0PifhnmwqXeaA-4" style="edgeStyle=orthogonalEdgeStyle;rounded=0;orthogonalLoop=1;jettySize=auto;html=1;entryX=0;entryY=0.5;entryDx=0;entryDy=0;startArrow=classicThin;startFill=1;endArrow=none;endFill=0;" parent="1" source="ROrTbhS0PifhnmwqXeaA-5" target="ROrTbhS0PifhnmwqXeaA-25" edge="1">
          <mxGeometry relative="1" as="geometry" />
        </mxCell>
        <mxCell id="ROrTbhS0PifhnmwqXeaA-5" value="distributed ledger for public maritime services" style="ellipse;whiteSpace=wrap;html=1;rounded=1;shadow=1;comic=0;labelBackgroundColor=none;strokeWidth=2;fontFamily=Verdana;fontSize=12;align=center;" parent="1" vertex="1">
          <mxGeometry x="530" y="260" width="120" height="120" as="geometry" />
        </mxCell>
        <mxCell id="ROrTbhS0PifhnmwqXeaA-6" value="&lt;span&gt;MSR 3&lt;/span&gt;" style="ellipse;whiteSpace=wrap;html=1;rounded=1;shadow=1;comic=0;labelBackgroundColor=none;strokeWidth=2;fontFamily=Verdana;fontSize=12;align=center;" parent="1" vertex="1">
          <mxGeometry x="280" y="425" width="120" height="80" as="geometry" />
        </mxCell>
        <mxCell id="ROrTbhS0PifhnmwqXeaA-7" value="Service B" style="whiteSpace=wrap;html=1;rounded=1;shadow=1;comic=0;labelBackgroundColor=none;strokeWidth=2;fontFamily=Verdana;fontSize=12;align=center;arcSize=50;" parent="1" vertex="1">
          <mxGeometry x="110" y="140" width="100" height="20" as="geometry" />
        </mxCell>
        <mxCell id="ROrTbhS0PifhnmwqXeaA-8" value="&lt;span&gt;Service E&lt;/span&gt;" style="whiteSpace=wrap;html=1;rounded=1;shadow=1;comic=0;labelBackgroundColor=none;strokeWidth=2;fontFamily=Verdana;fontSize=12;align=center;arcSize=50;" parent="1" vertex="1">
          <mxGeometry x="570" y="60" width="100" height="20" as="geometry" />
        </mxCell>
        <mxCell id="ROrTbhS0PifhnmwqXeaA-9" value="&lt;span&gt;Service F&lt;/span&gt;" style="whiteSpace=wrap;html=1;rounded=1;shadow=1;comic=0;labelBackgroundColor=none;strokeWidth=2;fontFamily=Verdana;fontSize=12;align=center;arcSize=50;" parent="1" vertex="1">
          <mxGeometry x="840" y="130" width="100" height="20" as="geometry" />
        </mxCell>
        <mxCell id="ROrTbhS0PifhnmwqXeaA-10" value="registered" style="edgeStyle=none;rounded=1;html=1;labelBackgroundColor=none;startArrow=classicThin;startFill=1;startSize=5;endArrow=none;endFill=0;endSize=5;jettySize=auto;orthogonalLoop=1;strokeColor=#B3B3B3;strokeWidth=1;fontFamily=Verdana;fontSize=12" parent="1" source="ROrTbhS0PifhnmwqXeaA-2" target="ROrTbhS0PifhnmwqXeaA-1" edge="1">
          <mxGeometry relative="1" as="geometry" />
        </mxCell>
        <mxCell id="ROrTbhS0PifhnmwqXeaA-11" value="registered" style="edgeStyle=none;rounded=1;html=1;labelBackgroundColor=none;startArrow=classicThin;startFill=1;startSize=5;endArrow=none;endFill=0;endSize=5;jettySize=auto;orthogonalLoop=1;strokeColor=#B3B3B3;strokeWidth=1;fontFamily=Verdana;fontSize=12" parent="1" source="ROrTbhS0PifhnmwqXeaA-2" target="ROrTbhS0PifhnmwqXeaA-7" edge="1">
          <mxGeometry relative="1" as="geometry">
            <Array as="points" />
          </mxGeometry>
        </mxCell>
        <mxCell id="ROrTbhS0PifhnmwqXeaA-12" value="registered" style="edgeStyle=none;rounded=1;html=1;labelBackgroundColor=none;startArrow=classicThin;startFill=1;startSize=5;endArrow=none;endFill=0;endSize=5;jettySize=auto;orthogonalLoop=1;strokeWidth=1;fontFamily=Verdana;fontSize=12;strokeColor=#B3B3B3;" parent="1" source="ROrTbhS0PifhnmwqXeaA-5" target="ROrTbhS0PifhnmwqXeaA-2" edge="1">
          <mxGeometry relative="1" as="geometry" />
        </mxCell>
        <mxCell id="ROrTbhS0PifhnmwqXeaA-13" value="registered" style="edgeStyle=none;rounded=1;html=1;labelBackgroundColor=none;startArrow=classicThin;startFill=1;startSize=5;endArrow=none;endFill=0;endSize=5;jettySize=auto;orthogonalLoop=1;strokeColor=#B3B3B3;strokeWidth=1;fontFamily=Verdana;fontSize=12" parent="1" source="ROrTbhS0PifhnmwqXeaA-5" target="ROrTbhS0PifhnmwqXeaA-3" edge="1">
          <mxGeometry relative="1" as="geometry" />
        </mxCell>
        <mxCell id="ROrTbhS0PifhnmwqXeaA-14" value="registered" style="edgeStyle=none;rounded=1;html=1;labelBackgroundColor=none;startArrow=classicThin;startFill=1;startSize=5;endArrow=none;endFill=0;endSize=5;jettySize=auto;orthogonalLoop=1;strokeColor=#B3B3B3;strokeWidth=1;fontFamily=Verdana;fontSize=12" parent="1" source="ROrTbhS0PifhnmwqXeaA-5" target="ROrTbhS0PifhnmwqXeaA-6" edge="1">
          <mxGeometry relative="1" as="geometry" />
        </mxCell>
        <mxCell id="ROrTbhS0PifhnmwqXeaA-15" value="registered" style="edgeStyle=none;rounded=1;html=1;labelBackgroundColor=none;startArrow=classicThin;startFill=1;startSize=5;endArrow=none;endFill=0;endSize=5;jettySize=auto;orthogonalLoop=1;strokeColor=#B3B3B3;strokeWidth=1;fontFamily=Verdana;fontSize=12" parent="1" source="ROrTbhS0PifhnmwqXeaA-3" target="ROrTbhS0PifhnmwqXeaA-9" edge="1">
          <mxGeometry relative="1" as="geometry" />
        </mxCell>
        <mxCell id="ROrTbhS0PifhnmwqXeaA-16" value="registered" style="edgeStyle=none;rounded=1;html=1;labelBackgroundColor=none;startArrow=classicThin;startFill=1;startSize=5;endArrow=none;endFill=0;endSize=5;jettySize=auto;orthogonalLoop=1;strokeColor=#B3B3B3;strokeWidth=1;fontFamily=Verdana;fontSize=12" parent="1" source="ROrTbhS0PifhnmwqXeaA-3" target="ROrTbhS0PifhnmwqXeaA-8" edge="1">
          <mxGeometry relative="1" as="geometry" />
        </mxCell>
        <mxCell id="ROrTbhS0PifhnmwqXeaA-17" value="&lt;span&gt;Service C&lt;/span&gt;" style="whiteSpace=wrap;html=1;rounded=1;shadow=1;comic=0;labelBackgroundColor=none;strokeWidth=2;fontFamily=Verdana;fontSize=12;align=center;arcSize=50;" parent="1" vertex="1">
          <mxGeometry x="440" y="180" width="100" height="20" as="geometry" />
        </mxCell>
        <mxCell id="ROrTbhS0PifhnmwqXeaA-18" value="&lt;span&gt;Service D&lt;/span&gt;" style="whiteSpace=wrap;html=1;rounded=1;shadow=1;comic=0;labelBackgroundColor=none;strokeWidth=2;fontFamily=Verdana;fontSize=12;align=center;arcSize=50;" parent="1" vertex="1">
          <mxGeometry x="160" y="550" width="100" height="20" as="geometry" />
        </mxCell>
        <mxCell id="ROrTbhS0PifhnmwqXeaA-19" value="registered" style="edgeStyle=none;rounded=1;html=1;labelBackgroundColor=none;startArrow=classicThin;startFill=1;startSize=5;endArrow=none;endFill=0;endSize=5;jettySize=auto;orthogonalLoop=1;strokeColor=#B3B3B3;strokeWidth=1;fontFamily=Verdana;fontSize=12;" parent="1" source="ROrTbhS0PifhnmwqXeaA-2" target="ROrTbhS0PifhnmwqXeaA-17" edge="1">
          <mxGeometry relative="1" as="geometry" />
        </mxCell>
        <mxCell id="ROrTbhS0PifhnmwqXeaA-20" value="registered" style="edgeStyle=none;rounded=1;html=1;labelBackgroundColor=none;startArrow=classicThin;startFill=1;startSize=5;endArrow=none;endFill=0;endSize=5;jettySize=auto;orthogonalLoop=1;strokeColor=#B3B3B3;strokeWidth=1;fontFamily=Verdana;fontSize=12" parent="1" source="ROrTbhS0PifhnmwqXeaA-6" target="ROrTbhS0PifhnmwqXeaA-18" edge="1">
          <mxGeometry relative="1" as="geometry" />
        </mxCell>
        <mxCell id="ROrTbhS0PifhnmwqXeaA-21" value="Service consumer" style="shape=umlActor;verticalLabelPosition=bottom;verticalAlign=top;html=1;outlineConnect=0;" parent="1" vertex="1">
          <mxGeometry x="795" y="490" width="30" height="60" as="geometry" />
        </mxCell>
        <mxCell id="ROrTbhS0PifhnmwqXeaA-22" value="" style="edgeStyle=orthogonalEdgeStyle;rounded=0;orthogonalLoop=1;jettySize=auto;html=1;startArrow=classicThin;startFill=1;endArrow=none;endFill=0;entryX=0;entryY=1;entryDx=0;entryDy=0;strokeColor=#0A0202;" parent="1" source="ROrTbhS0PifhnmwqXeaA-23" target="ROrTbhS0PifhnmwqXeaA-25" edge="1">
          <mxGeometry x="0.28" y="10" relative="1" as="geometry">
            <mxPoint x="580" y="390" as="targetPoint" />
            <mxPoint as="offset" />
            <Array as="points">
              <mxPoint x="748" y="445" />
            </Array>
          </mxGeometry>
        </mxCell>
        <mxCell id="ROrTbhS0PifhnmwqXeaA-23" value="" style="shape=image;html=1;verticalAlign=top;verticalLabelPosition=bottom;labelBackgroundColor=#ffffff;imageAspect=0;aspect=fixed;image=https://cdn0.iconfinder.com/data/icons/pinpoint-notifocation/48/question-fill-128.png" parent="1" vertex="1">
          <mxGeometry x="775" y="410" width="70" height="70" as="geometry" />
        </mxCell>
        <mxCell id="ROrTbhS0PifhnmwqXeaA-24" style="edgeStyle=orthogonalEdgeStyle;rounded=0;orthogonalLoop=1;jettySize=auto;html=1;entryX=1;entryY=0.5;entryDx=0;entryDy=0;startArrow=classicThin;startFill=1;endArrow=none;endFill=0;" parent="1" source="ROrTbhS0PifhnmwqXeaA-25" target="ROrTbhS0PifhnmwqXeaA-23" edge="1">
          <mxGeometry relative="1" as="geometry">
            <Array as="points">
              <mxPoint x="870" y="320" />
              <mxPoint x="870" y="445" />
            </Array>
          </mxGeometry>
        </mxCell>
        <mxCell id="ROrTbhS0PifhnmwqXeaA-25" value="MCC web service for global service discoverability" style="ellipse;whiteSpace=wrap;html=1;rounded=1;shadow=1;comic=0;labelBackgroundColor=none;strokeWidth=2;fontFamily=Verdana;fontSize=12;align=center;" parent="1" vertex="1">
          <mxGeometry x="730" y="260" width="120" height="120" as="geometry" />
        </mxCell>
      </root>
    </mxGraphModel>
  </diagram>
</mxfile>
